<svg version="1.2" xmlns="http://www.w3.org/2000/svg" viewBox="0 0 64 64" width="64" height="64">
	<title>heathcae-01-svg</title>
	<style>
		.s0 { fill: none;stroke: #2a769e;stroke-linecap: round;stroke-linejoin: round;stroke-width: 4 } 
		.s1 { fill: none;stroke: #3dc7f4;stroke-width: 4 } 
	</style>
	<path id="Layer" class="s0" d="m60.2 16.2c0.8 1.8 1.2 3.8 1.2 5.9 0.1 2-0.3 4-1.1 5.9-0.7 1.9-1.8 3.7-3.2 5.1l-3.6 3.6-20.7 21.4q-0.1 0.1-0.2 0.1-0.2 0.1-0.3 0.1-0.2 0-0.3-0.1-0.2 0-0.3-0.1l-20.7-21.4-3.6-3.6c-1.4-1.5-2.5-3.2-3.2-5.1-0.8-1.8-1.2-3.9-1.2-5.9 0-2 0.4-4 1.2-5.9 0.7-1.9 1.8-3.6 3.2-5.1 1.4-1.4 3-2.6 4.8-3.3 1.8-0.8 3.8-1.2 5.8-1.2 2 0 3.9 0.4 5.7 1.2 1.9 0.7 3.5 1.9 4.8 3.3l3 3.2q0.1 0 0.2 0.1 0.2 0 0.3 0 0.2 0 0.3 0 0.2-0.1 0.3-0.1l2.9-3.2c1.4-1.4 3-2.6 4.9-3.3 1.8-0.8 3.8-1.2 5.8-1.2 2 0 4 0.4 5.8 1.2 1.8 0.7 3.5 1.9 4.9 3.3 1.4 1.5 2.5 3.2 3.3 5.1z"/>
	<path id="Layer" class="s1" d="m16.4 31.1h6.8l4.5-4.5 4.4 9 4.5-11.3 4.5 6.8h6.8"/>
</svg>