<svg version="1.2" xmlns="http://www.w3.org/2000/svg" viewBox="0 0 64 64" width="45" height="45">
	<title>home-logistics-01-svg</title>
	<style>
		.s0 { fill: #5db8e8 } 
	</style>
	<path id="Layer" fill-rule="evenodd" class="s0" d="m58.6 22.2q1.5 0.6 2.6 1.7 1.1 1.1 1.7 2.6 0.6 1.4 0.6 3v17.5q0 0.4-0.2 0.8-0.1 0.3-0.4 0.6-0.3 0.3-0.6 0.4-0.4 0.2-0.8 0.2h-6c-0.2 2.1-1.3 4.1-2.9 5.6-1.6 1.4-3.7 2.2-5.8 2.2-2.2 0-4.2-0.8-5.8-2.2-1.6-1.5-2.7-3.5-2.9-5.6h-12.3c-0.3 3.4-2.5 6.2-5.7 7.3-3.2 1.1-6.7 0.2-9-2.2-2.3-2.5-3-6.1-1.7-9.2 1.3-3.1 4.3-5.1 7.7-5.2q1.3 0 2.6 0.4 1.2 0.3 2.3 1 1.1 0.8 1.9 1.8 0.9 1 1.4 2.2h13.3c0.7-1.6 1.8-3 3.3-3.9 1.4-1 3.1-1.5 4.8-1.5 1.8 0 3.5 0.5 4.9 1.5 1.5 0.9 2.6 2.3 3.3 3.9h4.7v-9.8h-7.8v-3.9h7.8v-1.9q0-0.8-0.3-1.5-0.3-0.8-0.9-1.3-0.5-0.5-1.2-0.8-0.8-0.3-1.5-0.3h-7.8v10.7h-0.9q-0.4 0-0.8 0-0.3 0-0.7 0.1-0.4 0-0.8 0.1-0.3 0.1-0.7 0.2v-22.9h-39v35.2h-2q-0.4 0-0.8-0.2-0.3-0.1-0.6-0.4-0.3-0.3-0.4-0.6-0.1-0.4-0.2-0.8v-35.1q0.1-0.4 0.2-0.8 0.1-0.3 0.4-0.6 0.3-0.3 0.6-0.4 0.4-0.2 0.8-0.2h42.9q0.3 0 0.7 0.1 0.4 0.2 0.7 0.5 0.2 0.3 0.4 0.6 0.1 0.4 0.2 0.8v9.7h7.8q1.5 0.1 2.9 0.6zm-40.9 30.7c1.3-0.1 2.4-0.7 3.2-1.6 0.8-0.9 1.2-2.1 1.2-3.4-0.1-1.2-0.7-2.3-1.6-3.1-0.9-0.9-2.1-1.3-3.4-1.2h-0.6c-1.2 0.1-2.3 0.7-3.1 1.6-0.8 0.9-1.2 2.1-1.2 3.3 0.1 1.3 0.7 2.4 1.6 3.2 0.9 0.8 2.1 1.3 3.3 1.2zm30.9-0.3q0.8-0.4 1.5-1 0.7-0.7 1.1-1.5 0.4-0.9 0.4-1.8c0-1.9-1.1-3.6-2.8-4.3-1.7-0.8-3.7-0.4-5 0.9-1.4 1.3-1.8 3.2-1.2 5 0.6 1.7 2.3 2.9 4.1 3q1 0 1.9-0.3z"/>
</svg>