<svg version="1.2" xmlns="http://www.w3.org/2000/svg" viewBox="0 0 64 64" width="45" height="45">
	<title>home-lifestyle-01-svg</title>
	<style>
		.s0 { fill: #5db8e8 } 
		.s1 { fill: none;stroke: #28759d;stroke-linecap: round;stroke-linejoin: round } 
	</style>
	<path id="Layer" fill-rule="evenodd" class="s0" d="m44.4 49q-0.2-0.1-0.4-0.2-0.1-0.2-0.2-0.4-0.1-0.2-0.1-0.5v-11.4l-12.3 12.3q-0.1 0-0.2 0.1-0.1 0.1-0.2 0.1-0.1 0.1-0.2 0.1-0.1 0-0.2 0h-14.3q-0.3 0-0.5-0.1-0.2-0.1-0.4-0.3-0.2-0.1-0.3-0.3-0.1-0.3-0.1-0.5 0-1.2 0.5-2.3 0.4-1.1 1.3-1.9 0.8-0.9 1.9-1.3 1.1-0.5 2.2-0.5l6.7-0.9 16.4-19.7q0.1-0.1 0.4-0.3 0.2-0.1 0.4-0.1 0.3 0 0.5 0.1 0.3 0.1 0.5 0.3 1.2 1.2 1.9 2.9 0.7 1.6 0.8 3.4 0 1.8-0.6 3.5-0.6 1.6-1.8 3v13.8q0 0.3-0.1 0.5-0.1 0.2-0.2 0.4-0.2 0.1-0.4 0.2-0.3 0.1-0.5 0.1-0.2 0-0.5-0.1zm1-16.6c2.6-2.7 2-7.3 0-10.3l-17.2 20.3q-0.2 0.1-0.3 0.2-0.1 0.1-0.3 0.2-0.1 0.1-0.3 0.1-0.1 0.1-0.3 0.1l-7.8 0.8q-0.1 0-0.2 0.1 0 0-0.1 0-0.1 0.1-0.2 0.1 0 0.1-0.1 0.1-0.5 0.3-0.9 0.7-0.4 0.4-0.7 0.9-0.4 0.4-0.6 1-0.3 0.5-0.4 1h14.2z"/>
	<path id="Layer" class="s1" d="m2.3 55.3q-0.2 0-0.4-0.2-0.2-0.2-0.3-0.4-0.1-0.2-0.1-0.5v-27.4c0-0.6 0.4-1.1 1-1.1q0.1 0 0.2 0 0.2 0.1 0.3 0.2 0.1 0.1 0.1 0.3 0.1 0.1 0.1 0.2l0.2 27.6 56.9-0.5v-37.4l-57-0.4-0.1 6.3c0 0.7-0.3 1.1-0.7 1.1-0.7 0-0.9-0.4-0.9-1.1v-6.5q0-0.2 0.1-0.4 0.1-0.2 0.2-0.4 0.2-0.2 0.4-0.3 0.2-0.1 0.5-0.1h58q0.2 0 0.5 0.1 0.2 0.1 0.3 0.3 0.2 0.2 0.3 0.4 0.1 0.2 0.1 0.4v38.7q0 0.3-0.1 0.5-0.1 0.2-0.3 0.4-0.1 0.2-0.4 0.3-0.2 0-0.4 0h-58q-0.3 0-0.5-0.1z"/>
</svg>