<svg version="1.2" xmlns="http://www.w3.org/2000/svg" viewBox="0 0 64 64" width="45" height="45">
	<title>home-ecommerce-01-svg</title>
	<style>
		.s0 { fill: #5db8e8 } 
	</style>
	<path id="Layer" fill-rule="evenodd" class="s0" d="m2.5 5.1q0-0.4 0.2-0.8 0.1-0.4 0.4-0.6 0.3-0.3 0.7-0.5 0.3-0.1 0.7-0.1h5.9q0.3 0 0.6 0.1 0.3 0.1 0.6 0.3 0.3 0.2 0.4 0.5 0.2 0.2 0.3 0.6l1.6 6.4h45.6q0.4 0 0.7 0.2 0.4 0.1 0.7 0.4 0.3 0.3 0.4 0.6 0.2 0.4 0.2 0.8 0 0 0 0.1 0 0 0 0.1 0 0 0 0.1 0 0 0 0.1l-6 31.3q-0.1 0.3-0.2 0.6-0.2 0.3-0.5 0.5-0.2 0.3-0.6 0.4-0.3 0.1-0.6 0.1h-3.9q0 0 0 0 1.5 0 3 0.6 1.4 0.6 2.5 1.7 1.1 1.1 1.7 2.5 0.6 1.5 0.6 3c0 3.2-1.9 6.1-4.8 7.3-3 1.2-6.3 0.5-8.6-1.7-2.2-2.2-2.9-5.6-1.7-8.6 1.2-2.9 4.1-4.8 7.3-4.8h-27.5q1.5 0 3 0.6 1.4 0.6 2.5 1.7 1.1 1.1 1.7 2.6 0.6 1.4 0.6 2.9c0 3.2-1.9 6.1-4.9 7.3-2.9 1.2-6.3 0.5-8.5-1.7-2.3-2.3-2.9-5.6-1.7-8.6 1.2-2.9 4.1-4.8 7.2-4.8h0.1q-0.1 0-0.1 0h-3.9q-0.3 0-0.6-0.1-0.3-0.1-0.6-0.4-0.3-0.2-0.4-0.5-0.2-0.3-0.3-0.6l-5.9-31.4-1.5-6.3h-4.4q-0.4 0-0.7-0.2-0.4-0.1-0.7-0.4-0.2-0.2-0.4-0.6-0.1-0.3-0.2-0.7zm47.2 41.2q0 0 0 0zm-35-31.4l5.2 27.5h32.1l5.2-27.5zm5.9 35.6q-0.7 0.3-1.3 0.9-0.5 0.5-0.8 1.2-0.3 0.8-0.3 1.6c0 1.5 0.9 3 2.4 3.6 1.5 0.6 3.2 0.3 4.3-0.9 1.1-1.1 1.5-2.8 0.8-4.3-0.6-1.4-2-2.4-3.6-2.4q-0.8 0-1.5 0.3zm27.5 0q-0.7 0.3-1.3 0.9-0.5 0.5-0.8 1.2-0.3 0.8-0.3 1.6c0 1.5 0.9 3 2.4 3.6 1.5 0.6 3.2 0.3 4.3-0.9 1.1-1.1 1.4-2.8 0.8-4.3-0.6-1.4-2-2.4-3.6-2.4q-0.8 0-1.5 0.3z"/>
</svg>