<svg version="1.2" xmlns="http://www.w3.org/2000/svg" viewBox="0 0 64 64" width="64" height="64">
	<title>manufacturing-01-svg</title>
	<style>
		.s0 { fill: #3fc7f3 } 
		.s1 { fill: #25769f } 
	</style>
	<path id="Layer" fill-rule="evenodd" class="s0" d="m40.7 29.1q-0.1 0.4-0.2 0.9-0.1 0.4-0.3 0.8-0.2 0.5-0.4 0.9-0.2 0.4-0.5 0.8l2.1 4-4.9 4.7-4.2-2q-0.4 0.2-0.9 0.4-0.4 0.2-0.8 0.4-0.5 0.2-0.9 0.3-0.5 0.2-0.9 0.3l-1.4 4h-7l-1.1-4.4q-0.5 0-0.9-0.2-0.5-0.1-0.9-0.3-0.4-0.1-0.9-0.4-0.4-0.2-0.8-0.4l-4.2 2-4.9-4.7 1.7-3.8q-0.2-0.3-0.4-0.8-0.2-0.4-0.4-0.8-0.2-0.4-0.3-0.9-0.2-0.4-0.3-0.8l-4.2-1.4v-6.7l4.6-1q0.1-0.5 0.2-0.9 0.1-0.5 0.3-0.9 0.2-0.4 0.4-0.9 0.2-0.4 0.5-0.8l-2.1-4 4.9-4.7 3.9 1.7q0.4-0.2 0.8-0.4 0.5-0.2 0.9-0.4 0.4-0.2 0.9-0.3 0.4-0.1 0.9-0.3l1.4-4h7l1.4 4q0.5 0.1 0.9 0.3 0.5 0.1 0.9 0.3 0.4 0.1 0.9 0.3 0.4 0.2 0.8 0.5l3.9-1.7 5.2 4.5-2.1 4q0.3 0.4 0.5 0.8 0.2 0.4 0.3 0.8 0.2 0.4 0.4 0.9 0.1 0.4 0.2 0.8l4.2 1.4v6.7zm-30.8-4.9c0 7.4 6 13.2 13.7 13.2 7.8 0 13.7-5.7 13.7-13.2 0-7.5-5.9-13.2-13.7-13.2-7.7 0-13.7 5.7-13.6 13.2zm19.2 0.2c0.1 2.1-1.1 4.1-3.1 5-1.9 0.9-4.2 0.5-5.8-1-1.5-1.5-2-3.8-1.2-5.8 0.8-2 2.7-3.3 4.9-3.3q1 0 1.9 0.4 1 0.4 1.7 1.1 0.8 0.7 1.2 1.6 0.4 0.9 0.4 2z"/>
	<path id="Layer" fill-rule="evenodd" class="s1" d="m56.9 14.2c0 0.7-0.3 1-0.7 1.7l1.4 1.4-2.4 2.3-1.4-1.3q-0.2 0.1-0.4 0.2-0.2 0.2-0.5 0.3-0.2 0-0.4 0.1-0.3 0-0.5 0v2h-3.6v-2q-0.2 0-0.4 0-0.2-0.1-0.5-0.2-0.2-0.1-0.4-0.2-0.2-0.1-0.4-0.2l-1.4 1.3-2.5-2.3 1.4-1.4q-0.1-0.2-0.3-0.4-0.1-0.2-0.2-0.4-0.1-0.2-0.1-0.4-0.1-0.3-0.1-0.5h-2.1v-3.4h2.1c0-0.6 0.4-1 0.7-1.6l-1.4-1.4 2.5-2.4 1.4 1.4q0.2-0.2 0.4-0.3 0.2-0.1 0.4-0.2 0.2-0.1 0.5-0.1 0.2-0.1 0.5-0.1v-2h3.5v2c0.7 0 1 0.4 1.7 0.7l1.4-1.4 2.5 2.4-1.4 1.4q0.1 0.1 0.3 0.3 0.1 0.2 0.2 0.4 0.1 0.2 0.1 0.5 0.1 0.2 0.1 0.4h2.1v3.4zm-6.8 3q0.9 0.1 1.8-0.2 0.9-0.4 1.6-1 0.7-0.7 1.1-1.6 0.4-0.9 0.3-1.9 0.1-0.9-0.3-1.8-0.4-0.9-1-1.6-0.7-0.7-1.6-1-1-0.3-1.9-0.2-1-0.1-1.9 0.2-0.9 0.3-1.6 1-0.7 0.7-1.1 1.6-0.3 0.9-0.3 1.8 0 1 0.3 1.9 0.4 0.9 1.1 1.6 0.7 0.6 1.6 1 0.9 0.3 1.9 0.2z"/>
	<path id="Layer" fill-rule="evenodd" class="s1" d="m53.9 52c0 0.8-0.5 1.3-0.9 2.1l1.9 1.8-3.1 3-1.8-1.8q-0.3 0.2-0.5 0.4-0.3 0.2-0.6 0.3-0.2 0.1-0.5 0.1-0.3 0.1-0.6 0.1v2.5h-4.5v-2.5c-0.9 0-1.3-0.5-2.2-0.9l-1.8 1.7-3.1-3 1.8-1.7q-0.2-0.2-0.4-0.4-0.1-0.3-0.3-0.6-0.1-0.2-0.2-0.5 0-0.3 0-0.6h-2.7v-4.3h2.7c0-0.8 0.4-1.3 0.9-2.1l-1.8-1.7 3.1-3 1.8 1.7q0.2-0.2 0.4-0.4 0.3-0.1 0.6-0.2 0.3-0.1 0.6-0.2 0.3-0.1 0.6-0.1v-2.5h4.4v2.5c0.9 0 1.3 0.4 2.2 0.9l1.8-1.7 3.1 3-1.8 1.7q0.2 0.2 0.4 0.4 0.1 0.3 0.3 0.6 0.1 0.2 0.2 0.5 0 0.3 0 0.6h2.7v4.3zm-2.4-2.1c0-3.6-2.5-5.9-6.2-5.9-3.6 0-6.1 2.3-6.1 5.9 0 3.5 2.5 5.9 6.1 5.9 3.7 0 6.2-2.4 6.2-5.9z"/>
</svg>