<svg id="Layer_1" data-name="Layer 1" xmlns="http://www.w3.org/2000/svg" viewBox="0 0 128 128"><defs><style>.cls-1{fill:#253858;}.cls-2{fill:#597193;}.cls-3{fill:#ccc;}.cls-4{fill:#e2e2e2;}.cls-5{fill:#29414f;}.cls-6{opacity:0.25;}.cls-7{fill:#fff;}</style></defs><path class="cls-1" d="M2.93,108.22V30.36a2.54,2.54,0,0,1,2.49-2.5h118a2.54,2.54,0,0,1,2.5,2.5v77.86Z"/><rect class="cls-2" x="7.92" y="32.86" width="113.04" height="70.36"/><path class="cls-3" d="M56.25,42.71A26.77,26.77,0,1,1,29.48,69.48,26.77,26.77,0,0,1,56.25,42.71m0-1.92A28.7,28.7,0,1,0,85,69.48a28.69,28.69,0,0,0-28.7-28.69Z"/><path class="cls-3" d="M56.25,50.15A19.34,19.34,0,1,1,36.92,69.48,19.33,19.33,0,0,1,56.25,50.15m0-1.93A21.26,21.26,0,1,0,77.52,69.48,21.27,21.27,0,0,0,56.25,48.22Z"/><polygon class="cls-4" points="47.6 76.6 62.66 72.66 101.33 33.98 90.21 22.86 51.54 61.54 47.6 76.6"/><polyline class="cls-5" points="49.76 68.34 47.6 76.6 55.85 74.44"/><rect x="88.76" y="26.74" width="1.68" height="15.73" transform="translate(1.78 73.49) rotate(-45)"/><rect class="cls-1" x="49.93" y="41.92" width="48.97" height="15.73" transform="translate(-13.4 67.2) rotate(-45)"/><rect x="87.2" y="24.11" width="10.03" height="15.73" transform="translate(4.4 74.57) rotate(-45)"/><g class="cls-6"><polygon class="cls-7" points="47.6 76.6 95.98 28.63 90.21 22.86 51.54 61.53 47.6 76.6"/></g></svg>