<svg id="Layer_1" data-name="Layer 1" xmlns="http://www.w3.org/2000/svg" viewBox="0 0 128 128"><defs><style>.cls-1{fill:#253858;}</style></defs><path class="cls-1" d="M87.09,70a3.38,3.38,0,0,0-4.78,0l-2.68,2.68-5.37-5.36L86.1,55.43h5.36c13.27,0,20.29-8.18,20.29-23.67a3.39,3.39,0,0,0-4.9-3L95.51,34.41,92.19,31.1l5.68-11.35a3.38,3.38,0,0,0-3-4.89c-15.48,0-23.67,7-23.67,20.29v5.36L59.34,52.34,40.45,33.46l2.68-2.69a3.38,3.38,0,0,0,1-2.8,3.42,3.42,0,0,0-1.62-2.49L25.57,15.34a3.37,3.37,0,0,0-4.13.51l-3.38,3.38a3.37,3.37,0,0,0-.51,4.13L27.7,40.27a3.35,3.35,0,0,0,2.48,1.61l.42,0a3.38,3.38,0,0,0,2.39-1l2.68-2.68L54.56,57.12,14.68,97a3.42,3.42,0,0,0-.82,1.32l-3.38,10.15a3.39,3.39,0,0,0,.82,3.46l3.38,3.38a3.39,3.39,0,0,0,2.39,1,3.29,3.29,0,0,0,1.07-.18l10.14-3.38a3.39,3.39,0,0,0,1.33-.81L69.48,72.05l5.36,5.36-2.68,2.68a3.39,3.39,0,0,0,0,4.79l30.44,30.43a3.34,3.34,0,0,0,2.39,1,3.38,3.38,0,0,0,2.39-1l10.14-10.15a3.38,3.38,0,0,0,0-4.78ZM31.27,33.07l-6-10,10.05,6Zm-5.88,73.51L18,109.05l-.42-.43,2.47-7.4L76.94,44.3a3.37,3.37,0,0,0,1-2.39V35.15c0-5.73,1.47-11.56,11.23-13.12l-4.12,8.22a3.39,3.39,0,0,0,.64,3.91l6.76,6.76a3.38,3.38,0,0,0,3.9.63l8.23-4.11C103,47.2,97.18,48.67,91.46,48.67H84.7a3.38,3.38,0,0,0-2.39,1Zm79.6,1.55L79.34,82.48l5.36-5.36,25.65,25.65Z"/></svg>