<svg id="Layer_1" data-name="Layer 1" xmlns="http://www.w3.org/2000/svg" viewBox="0 0 128 128"><defs><style>.cls-1{fill:#253858;}.cls-2{fill:#587093;}.cls-3{fill:#8d8ea3;}</style></defs><g id="Icons"><rect class="cls-1" x="14.39" y="11.81" width="42.13" height="42.13" rx="9.36"/><rect class="cls-2" x="75.24" y="11.81" width="42.13" height="42.13" rx="9.36"/><rect class="cls-1" x="14.39" y="72.66" width="42.13" height="42.13" rx="9.36"/><rect class="cls-1" x="75.24" y="72.66" width="42.13" height="42.13" rx="9.36"/><path class="cls-2" d="M56.52,82a9.38,9.38,0,0,1-9.36,9.36H23.75a9.36,9.36,0,1,1,0-18.72H47.16A9.39,9.39,0,0,1,56.52,82Z"/><path class="cls-2" d="M117.37,82A9.38,9.38,0,0,1,108,91.38H84.6a9.36,9.36,0,1,1,0-18.72H108A9.39,9.39,0,0,1,117.37,82Z"/></g><g id="Layer_4" data-name="Layer 4"><path class="cls-3" d="M47.16,7.13H23.75a14,14,0,0,0-14,14v23.4a14,14,0,0,0,14,14H47.16a14,14,0,0,0,14-14V21.17A14,14,0,0,0,47.16,7.13Zm4.68,37.44a4.69,4.69,0,0,1-4.68,4.69H23.75a4.69,4.69,0,0,1-4.68-4.69V21.17a4.69,4.69,0,0,1,4.68-4.68H47.16a4.69,4.69,0,0,1,4.68,4.68Z"/><path class="cls-3" d="M108,7.13H84.6a14,14,0,0,0-14,14v23.4a14,14,0,0,0,14,14H108a14,14,0,0,0,14-14V21.17A14,14,0,0,0,108,7.13Zm4.68,37.44A4.69,4.69,0,0,1,108,49.26H84.6a4.69,4.69,0,0,1-4.68-4.69V21.17a4.69,4.69,0,0,1,4.68-4.68H108a4.69,4.69,0,0,1,4.68,4.68Z"/><path class="cls-3" d="M47.16,68H23.75a14,14,0,0,0-14,14v23.41a14,14,0,0,0,14,14H47.16a14,14,0,0,0,14-14V82A14,14,0,0,0,47.16,68Zm4.68,37.45a4.69,4.69,0,0,1-4.68,4.68H23.75a4.69,4.69,0,0,1-4.68-4.68V82a4.69,4.69,0,0,1,4.68-4.68H47.16A4.69,4.69,0,0,1,51.84,82Z"/><path class="cls-3" d="M108,68H84.6a14,14,0,0,0-14,14v23.41a14,14,0,0,0,14,14H108a14,14,0,0,0,14-14V82A14,14,0,0,0,108,68Zm4.68,37.45a4.69,4.69,0,0,1-4.68,4.68H84.6a4.69,4.69,0,0,1-4.68-4.68V82a4.69,4.69,0,0,1,4.68-4.68H108A4.69,4.69,0,0,1,112.69,82Z"/></g></svg>